HIERARCHY
ROOT ui
{
	 OFFSET 0 0 0
	 CHANNELS 3 XPosition YPosition Z Position
	 EndSite
	 {
	 OFFSET 0 -1 0
	 }
}
ROOT li
{
	 OFFSET 0 0 0
	 CHANNELS 3 XPosition YPosition Z Position
	 EndSite
	 {
	 OFFSET 0 -1 0
	 }
}
ROOT ul
{
	 OFFSET 0 0 0
	 CHANNELS 3 XPosition YPosition Z Position
	 EndSite
	 {
	 OFFSET 0 -1 0
	 }
}
ROOT ll
{
	 OFFSET 0 0 0
	 CHANNELS 3 XPosition YPosition Z Position
	 EndSite
	 {
	 OFFSET 0 -1 0
	 }
}
ROOT tt
{
	 OFFSET 0 0 0
	 CHANNELS 3 XPosition YPosition Z Position
	 EndSite
	 {
	 OFFSET 0 -1 0
	 }
}
ROOT tb
{
	 OFFSET 0 0 0
	 CHANNELS 3 XPosition YPosition Z Position
	 EndSite
	 {
	 OFFSET 0 -1 0
	 }
}
ROOT td
{
	 OFFSET 0 0 0
	 CHANNELS 3 XPosition YPosition Z Position
	 EndSite
	 {
	 OFFSET 0 -1 0
	 }
}
ROOT v
{
	 OFFSET 0 0 0
	 CHANNELS 3 XPosition YPosition Z Position
	 EndSite
	 {
	 OFFSET 0 -1 0
	 }
}
ROOT bn
{
	 OFFSET 0 0 0
	 CHANNELS 3 XPosition YPosition Z Position
	 EndSite
	 {
	 OFFSET 0 -1 0
	 }
}
MOTION
Frames: 32
Frame Time: 0.002
-0.01099930191040039	0.007077939987182617	0		0.4833100891113281	-2.54022705078125	0		-0.981182861328125	0.22435389709472656	0		-0.5556124267578125	-2.409368408203125	0		2.74502001953125	-0.002409674882888794	0		4.031172119140625	-0.10737429809570312	0		5.32901416015625	-0.13143560791015624	0		5.96204248046875	0.4527754821777344	0		-0.28882589721679686	5.89565966796875	0		
-0.011235859870910645	0.007103038787841797	0		0.4851103515625	-2.53821533203125	0		-0.97738720703125	0.2283372344970703	0		-0.5899566650390625	-2.4240576171875	0		2.722792724609375	-0.001175799012184143	0		4.0522763671875	-0.06749791717529297	0		5.31385595703125	-0.12224146270751954	0		5.97321875	0.4336352233886719	0		-0.26915167236328125	5.89051220703125	0		
0.02442250633239746	-0.0021400110721588135	0		0.5098056335449219	-2.542365966796875	0		-0.9076869506835937	0.22380673217773436	0		-0.5533892822265625	-2.443307373046875	0		2.7284521484375	-0.010169852256774902	0		4.02296240234375	-0.07319715881347656	0		5.313591796875	-0.12219091033935547	0		5.95665673828125	0.4427083129882812	0		-0.304451171875	5.88487451171875	0		
-0.015818678855895996	0.003296699047088623	0		0.4636519470214844	-2.522884765625	0		-0.9819666748046875	0.22454541015625	0		-0.5617733764648437	-2.451135986328125	0		2.686287841796875	0.0042493739128112796	0		4.01585546875	-0.05209309768676758	0		5.3114248046875	-0.10814556884765625	0		5.9606591796875	0.42189511108398436	0		-0.3046619873046875	5.88497412109375	0		
-0.006197474002838135	-0.0056649441719055175	0		0.5091284484863281	-2.5421650390625	0		-0.9822631225585937	0.22469110107421875	0		-0.5733701171875	-2.47890478515625	0		2.65893603515625	-0.0014578369855880737	0		4.0245439453125	-0.05313882827758789	0		5.3002578125	-0.09205055236816406	0		5.9640712890625	0.43909530639648436	0		-0.2867609558105469	5.8929501953125	0		
-0.0024754199981689455	-0.0015544459819793702	0		0.45983746337890624	-2.52961669921875	0		-1.0494964599609375	0.23344319152832033	0		-0.60083154296875	-2.486509033203125	0		2.66766650390625	0.003521795988082886	0		4.00360009765625	-0.009948078155517579	0		5.299080078125	-0.07607258605957032	0		5.95894091796875	0.46332540893554686	0		-0.28786990356445313	5.89411279296875	0		
0.023208011627197267	-0.0016173800230026244	0		0.5064551696777344	-2.524880859375	0		-0.9788391723632812	0.2290369110107422	0		-0.5383678588867188	-2.499864990234375	0		2.700358642578125	0.004284267902374268	0		3.969190673828125	-0.02066419792175293	0		5.2838310546875	-0.06800873565673828	0		5.96152587890625	0.4509905395507813	0		-0.3050104675292969	5.88543359375	0		
-0.00310391092300415	-0.0012196300029754638	0		0.47701190185546877	-2.524482177734375	0		-0.9791400756835937	0.22926118469238282	0		-0.5409931640625	-2.5206455078125	0		2.633996337890625	-0.001110031008720398	0		3.96305908203125	3.5357099771499633E-4	0		5.26859326171875	-0.058980884552001955	0		5.9618916015625	0.4161343994140625	0		-0.2850608215332031	5.88044921875	0		
0.018554386138916017	-0.005230350017547607	0		0.4925867614746094	-2.520469970703125	0		-0.9794319458007813	0.22950202941894532	0		-0.53960107421875	-2.5374482421875	0		2.5995869140625	-0.012791478157043457	0		3.957814697265625	0.0073370041847229004	0		5.2533544921875	-0.05098955154418945	0		5.96530078125	0.43303814697265625	0		-0.30496420288085935	5.88582275390625	0		
-0.017661857604980468	0.004270860195159912	0		0.4491093444824219	-2.520939453125	0		-0.9797127075195312	0.2297552032470703	0		-0.5461251831054688	-2.54317236328125	0		2.56113232421875	-0.030449478149414063	0		3.94082763671875	0.042398334503173825	0		5.2471162109375	-0.04411333084106445	0		5.96145947265625	0.4154184265136719	0		-0.2746624755859375	5.90776416015625	0		
0.017970932006835937	-0.004860336780548096	0		0.48654989624023437	-2.530123779296875	0		-0.9799813232421875	0.23001675415039063	0		-0.5898074951171876	-2.565560791015625	0		2.522987548828125	-0.014120331764221191	0		3.910537109375	0.04155207443237305	0		5.2351025390625	-0.013220206260681152	0		5.95985888671875	0.42363046264648435	0		-0.2744990539550781	5.90797216796875	0		
-0.014186487197875977	0.008609960556030274	0		0.4692377624511719	-2.510826904296875	0		-0.9752015991210937	0.23423776245117187	0		-0.5254038696289063	-2.5779091796875	0		2.52762158203125	-0.024187192916870118	0		3.90352587890625	0.07047702026367188	0		5.209908203125	-0.0042420878410339355	0		5.96552001953125	0.4644887390136719	0		-0.2543331604003906	5.9030009765625	0		
0.00851414966583252	0.004583356857299804	0		0.4677366027832031	-2.5126787109375	0		-0.98451611328125	0.22658535766601562	0		-0.57196337890625	-2.58526611328125	0		2.47623193359375	-0.03776607894897461	0		3.8723427734375	0.07859548950195312	0		5.18471826171875	0.0037075169086456298	0		5.958771484375	0.42597003173828124	0		-0.2540785980224609	5.903203125	0		
-0.008817273139953613	-0.004090433120727539	0		0.46523654174804685	-2.5145322265625	0		-0.9847454223632812	0.22684721374511718	0		-0.5216827392578125	-2.6105078125	0		2.47595068359375	-0.040823116302490234	0		3.8573017578125	0.10054592895507812	0		5.1825966796875	0.017418386459350586	0		5.9578974609375	0.430512939453125	0		-0.2868564758300781	5.8957001953125	0		
0.016944606781005858	-0.004172730922698975	0		0.46475872802734375	-2.514419677734375	0		-0.9849603271484375	0.227098876953125	0		-0.5862317504882812	-2.61670849609375	0		2.4185	-0.06337550735473632	0		3.839066162109375	0.09949957275390625	0		5.15151123046875	0.03336436080932617	0		5.96287158203125	0.46946392822265626	0		-0.284546142578125	5.8938662109375	0		
-0.005240071773529053	1.6977499425411223E-4	0		0.4693529357910156	-2.507373779296875	0		-0.9851604614257813	0.22733497619628906	0		-0.50584716796875	-2.63126806640625	0		2.38526318359375	-0.06416725158691407	0		3.815181640625	0.13448184204101563	0		5.14551611328125	0.0570492935180664	0		5.96271240234375	0.46867572021484377	0		-0.2851771240234375	5.89504248046875	0		
-0.005448980808258057	2.867870032787323E-4	0		0.4709106140136719	-2.505323486328125	0		-0.9853464965820312	0.22755055236816407	0		-0.5823267822265625	-2.6313828125	0		2.359001708984375	-0.06904490661621093	0		3.7749501953125	0.13059254455566408	0		5.11734228515625	0.05991255569458008	0		5.95530322265625	0.43512515258789064	0		-0.28578366088867185	5.89619677734375	0		
-0.0096824893951416	-0.0035837299823760988	0		0.4653953552246094	-2.512232421875	0		-0.9256267700195312	0.21616850280761718	0		-0.5328572998046875	-2.638710205078125	0		2.3346474609375	-0.084962890625	0		3.755911865234375	0.14548236083984376	0		5.09731640625	0.0766761932373047	0		5.95377001953125	0.44291455078125	0		-0.28538348388671875	5.89631640625	0		
-0.009863956451416016	-0.003521383047103882	0		0.46496319580078127	-2.512217529296875	0		-0.9997828369140624	0.21703607177734374	0		-0.54340771484375	-2.649498779296875	0		2.28429638671875	-0.10165178680419922	0		3.723814208984375	0.15247671508789062	0		5.07123046875	0.08547854614257812	0		5.9536396484375	0.44198272705078123	0		-0.23582334899902344	5.91193310546875	0		
-0.01002781867980957	-0.0034909279346466066	0		0.4645557556152344	-2.512233154296875	0		-1.0049639892578126	0.21321153259277345	0		-0.538965087890625	-2.663464599609375	0		2.260977783203125	-0.11661932373046875	0		3.696822509765625	0.1684069061279297	0		5.06123193359375	0.1011123046875	0		5.96135986328125	0.43910986328125	0		-0.2241503448486328	5.938876953125	0		
-0.006129429817199707	4.661589860916138E-4	0		0.4422821350097656	-2.502064453125	0		-1.005084716796875	0.21330026245117187	0		-0.5413716430664063	-2.665399169921875	0		2.215720703125	-0.127389892578125	0		3.668708984375	0.16933564758300781	0		5.04126904296875	0.11783528137207032	0		5.952021484375	0.447009765625	0		-0.238848388671875	5.92804150390625	0		
0.01975927734375	1.6927500069141387E-4	0		0.46892446899414064	-2.505409912109375	0		-0.94429833984375	0.20074319458007814	0		-0.5556719970703125	-2.661253173828125	0		2.183511962890625	-0.13630320739746093	0		3.641763671875	0.18424580383300782	0		5.00827978515625	0.12868637084960938	0		5.9597880859375	0.44585409545898436	0		-0.20438758850097657	5.93368505859375	0		
-0.010351316452026367	-0.003607822895050049	0		0.43763552856445315	-2.507212890625	0		-1.02742041015625	0.19457257080078125	0		-0.5620245361328124	-2.668224365234375	0		2.19111865234375	-0.16763029479980468	0		3.591728759765625	0.186381591796875	0		4.99430859375	0.13735360717773437	0		5.95049267578125	0.4520439147949219	0		-0.20595973205566406	5.93664501953125	0		
0.015619608879089355	-0.003981684923171997	0		0.48245843505859376	-2.504809814453125	0		-0.9665580444335937	0.1819188690185547	0		-0.5761898803710938	-2.66315673828125	0		2.132951171875	-0.1803134460449219	0		3.555806884765625	0.1953765869140625	0		4.970392578125	0.14712840270996094	0		5.9475546875	0.43561434936523435	0		-0.22254586791992187	5.93871826171875	0		
-0.01035652256011963	-0.0038691558837890623	0		0.430410400390625	-2.496463134765625	0		-1.0495906982421874	0.17566989135742186	0		-0.5664231567382813	-2.672371826171875	0		2.081752685546875	-0.20107716369628906	0		3.5597705078125	0.1879670867919922	0		4.9456689453125	0.17092387390136718	0		5.9510712890625	0.41905813598632813	0		-0.22017706298828124	5.9365615234375	0		
0.02470914649963379	-0.005411378860473633	0		0.4433168640136719	-2.500803955078125	0		-0.9686505126953125	0.16071397399902343	0		-0.5953912353515625	-2.66323388671875	0		2.0247008056640623	-0.21279078674316407	0		3.533144775390625	0.215868896484375	0		4.9369189453125	0.18657081604003906	0		5.9491533203125	0.45803594970703126	0		-0.2207798309326172	5.93739697265625	0		
-0.00610185718536377	-3.1665000319480897E-4	0		0.4265432434082031	-2.481870849609375	0		-0.977578369140625	0.1536261749267578	0		-0.5563485107421875	-2.661828857421875	0		2.0345517578125	-0.2401978759765625	0		3.47405810546875	0.19310371398925782	0		4.9141669921875	0.1963766632080078	0		5.945494140625	0.41232760620117187	0		-0.21754693603515626	5.9221552734375	0		
0.020093503952026366	-8.361570239067078E-4	0		0.45160809326171875	-2.4873935546875	0		-0.9904991455078125	0.14153840637207032	0		-0.5671541137695313	-2.653951416015625	0		1.9676314697265624	-0.2508279418945312	0		3.44240625	0.20706732177734374	0		4.89046337890625	0.20521246337890625	0		5.9414423828125	0.4324242248535156	0		-0.21716107177734376	5.9219091796875	0		
-0.009689300537109376	-0.0048097620010375975	0		0.42281231689453125	-2.48738720703125	0		-1.008392578125	0.12646397399902343	0		-0.5669550170898437	-2.654220947265625	0		1.9566263427734376	-0.2760380859375	0		3.43367822265625	0.20780319213867188	0		4.87766357421875	0.1989583740234375	0		5.941486328125	0.3988433837890625	0		-0.25082524108886717	5.91698193359375	0		
0.0077174692153930665	0.003707953929901123	0		0.4251294860839844	-2.4847197265625	0		-1.0012101440429688	0.11309730529785156	0		-0.629523193359375	-2.639873779296875	0		1.899776611328125	-0.2917801513671875	0		3.388224609375	0.22992884826660157	0		4.85421923828125	0.22184088134765625	0		5.9446513671875	0.4188804626464844	0		-0.23533970642089844	5.92652294921875	0		
-0.004962170124053955	-0.0014861969947814941	0		0.43845538330078127	-2.48918212890625	0		-0.9939730834960937	0.09969908142089844	0		-0.55215966796875	-2.64099365234375	0		1.8949622802734376	-0.31005853271484374	0		3.3555361328125	0.22393603515625	0		4.84762158203125	0.22457798767089843	0		5.94842333984375	0.40437033081054685	0		-0.21984812927246095	5.9370400390625	0		
0.02146085548400879	-0.0020990779399871827	0		0.42998455810546876	-2.481431640625	0		-0.9975904541015626	0.09538618469238282	0		-0.6145646362304688	-2.62669677734375	0		1.8781846923828125	-0.3302113037109375	0		3.3519072265625	0.21866168212890624	0		4.81599462890625	0.21960479736328126	0		5.932359375	0.4129232482910156	0		-0.18541636657714844	5.9423427734375	0		
